<svg width="184" height="71" viewBox="0 0 184 71" fill="none" xmlns="http://www.w3.org/2000/svg">
<path d="M12.5212 38.9219L1.74 36.3438L5.63062 1.75H43.9744V12.6719H16.74L15.0525 27.8125C15.9587 27.2812 17.3337 26.7188 19.1775 26.125C21.0212 25.5 23.0837 25.1875 25.365 25.1875C28.6775 25.1875 31.615 25.7031 34.1775 26.7344C36.74 27.7656 38.9119 29.2656 40.6931 31.2344C42.5056 33.2031 43.8806 35.6094 44.8181 38.4531C45.7556 41.2969 46.2244 44.5156 46.2244 48.1094C46.2244 51.1406 45.7556 54.0312 44.8181 56.7812C43.8806 59.5 42.4587 61.9375 40.5525 64.0938C38.6462 66.2188 36.2556 67.8906 33.3806 69.1094C30.5056 70.3281 27.0994 70.9375 23.1619 70.9375C20.2244 70.9375 17.3806 70.5 14.6306 69.625C11.9119 68.75 9.45875 67.4531 7.27125 65.7344C5.115 64.0156 3.38062 61.9375 2.06812 59.5C0.786873 57.0312 0.114998 54.2188 0.0524979 51.0625H13.4587C13.6462 53 14.1462 54.6719 14.9587 56.0781C15.8025 57.4531 16.9119 58.5156 18.2869 59.2656C19.6619 60.0156 21.2712 60.3906 23.115 60.3906C24.8337 60.3906 26.3025 60.0625 27.5212 59.4062C28.74 58.75 29.7244 57.8438 30.4744 56.6875C31.2244 55.5 31.7712 54.125 32.115 52.5625C32.49 50.9688 32.6775 49.25 32.6775 47.4062C32.6775 45.5625 32.4587 43.8906 32.0212 42.3906C31.5837 40.8906 30.9119 39.5938 30.0056 38.5C29.0994 37.4062 27.9431 36.5625 26.5369 35.9688C25.1619 35.375 23.5525 35.0781 21.7087 35.0781C19.2087 35.0781 17.2712 35.4688 15.8962 36.25C14.5525 37.0312 13.4275 37.9219 12.5212 38.9219ZM106.641 29.875V41.6875C106.641 46.8125 106.094 51.2344 105 54.9531C103.906 58.6406 102.328 61.6719 100.266 64.0469C98.2344 66.3906 95.8125 68.125 93 69.25C90.1875 70.375 87.0625 70.9375 83.625 70.9375C80.875 70.9375 78.3125 70.5938 75.9375 69.9062C73.5625 69.1875 71.4219 68.0781 69.5156 66.5781C67.6406 65.0781 66.0156 63.1875 64.6406 60.9062C63.2969 58.5938 62.2656 55.8438 61.5469 52.6562C60.8281 49.4688 60.4688 45.8125 60.4688 41.6875V29.875C60.4688 24.75 61.0156 20.3594 62.1094 16.7031C63.2344 13.0156 64.8125 10 66.8438 7.65625C68.9062 5.3125 71.3438 3.59375 74.1562 2.5C76.9688 1.375 80.0938 0.8125 83.5312 0.8125C86.2812 0.8125 88.8281 1.17188 91.1719 1.89062C93.5469 2.57813 95.6875 3.65625 97.5938 5.125C99.5 6.59375 101.125 8.48438 102.469 10.7969C103.812 13.0781 104.844 15.8125 105.562 19C106.281 22.1562 106.641 25.7812 106.641 29.875ZM93.0938 43.4688V28.0469C93.0938 25.5781 92.9531 23.4219 92.6719 21.5781C92.4219 19.7344 92.0312 18.1719 91.5 16.8906C90.9688 15.5781 90.3125 14.5156 89.5312 13.7031C88.75 12.8906 87.8594 12.2969 86.8594 11.9219C85.8594 11.5469 84.75 11.3594 83.5312 11.3594C82 11.3594 80.6406 11.6562 79.4531 12.25C78.2969 12.8438 77.3125 13.7969 76.5 15.1094C75.6875 16.3906 75.0625 18.1094 74.625 20.2656C74.2188 22.3906 74.0156 24.9844 74.0156 28.0469V43.4688C74.0156 45.9375 74.1406 48.1094 74.3906 49.9844C74.6719 51.8594 75.0781 53.4688 75.6094 54.8125C76.1719 56.125 76.8281 57.2031 77.5781 58.0469C78.3594 58.8594 79.25 59.4531 80.25 59.8281C81.2812 60.2031 82.4062 60.3906 83.625 60.3906C85.125 60.3906 86.4531 60.0938 87.6094 59.5C88.7969 58.875 89.7969 57.9062 90.6094 56.5938C91.4531 55.25 92.0781 53.5 92.4844 51.3438C92.8906 49.1875 93.0938 46.5625 93.0938 43.4688ZM121.401 18.4844V14.875C121.401 12.2812 121.963 9.92187 123.088 7.79688C124.213 5.67188 125.869 3.96875 128.057 2.6875C130.244 1.40625 132.932 0.765625 136.119 0.765625C139.401 0.765625 142.135 1.40625 144.323 2.6875C146.541 3.96875 148.198 5.67188 149.291 7.79688C150.416 9.92187 150.979 12.2812 150.979 14.875V18.4844C150.979 21.0156 150.416 23.3438 149.291 25.4688C148.198 27.5938 146.557 29.2969 144.369 30.5781C142.182 31.8594 139.479 32.5 136.26 32.5C133.01 32.5 130.276 31.8594 128.057 30.5781C125.869 29.2969 124.213 27.5938 123.088 25.4688C121.963 23.3438 121.401 21.0156 121.401 18.4844ZM130.354 14.875V18.4844C130.354 19.5781 130.557 20.625 130.963 21.625C131.401 22.5938 132.057 23.3906 132.932 24.0156C133.838 24.6094 134.932 24.9062 136.213 24.9062C137.557 24.9062 138.651 24.6094 139.494 24.0156C140.338 23.3906 140.963 22.5938 141.369 21.625C141.776 20.625 141.979 19.5781 141.979 18.4844V14.875C141.979 13.7188 141.76 12.6562 141.323 11.6875C140.916 10.6875 140.276 9.89063 139.401 9.29688C138.557 8.67188 137.463 8.35938 136.119 8.35938C134.869 8.35938 133.807 8.67188 132.932 9.29688C132.057 9.89063 131.401 10.6875 130.963 11.6875C130.557 12.6562 130.354 13.7188 130.354 14.875ZM154.026 56.875V53.2656C154.026 50.7031 154.588 48.3594 155.713 46.2344C156.869 44.1094 158.541 42.4062 160.729 41.125C162.948 39.8438 165.666 39.2031 168.885 39.2031C172.135 39.2031 174.854 39.8438 177.041 41.125C179.229 42.4062 180.885 44.1094 182.01 46.2344C183.135 48.3594 183.698 50.7031 183.698 53.2656V56.875C183.698 59.4375 183.135 61.7812 182.01 63.9062C180.916 66.0312 179.276 67.7344 177.088 69.0156C174.901 70.2969 172.198 70.9375 168.979 70.9375C165.729 70.9375 162.994 70.2969 160.776 69.0156C158.557 67.7344 156.869 66.0312 155.713 63.9062C154.588 61.7812 154.026 59.4375 154.026 56.875ZM163.026 53.2656V56.875C163.026 58 163.276 59.0625 163.776 60.0625C164.276 61.0625 164.963 61.8594 165.838 62.4531C166.744 63.0469 167.791 63.3438 168.979 63.3438C170.479 63.3438 171.651 63.0469 172.494 62.4531C173.338 61.8594 173.916 61.0625 174.229 60.0625C174.573 59.0625 174.744 58 174.744 56.875V53.2656C174.744 52.1406 174.526 51.0938 174.088 50.125C173.651 49.125 172.994 48.3281 172.119 47.7344C171.276 47.1094 170.198 46.7969 168.885 46.7969C167.573 46.7969 166.479 47.1094 165.604 47.7344C164.76 48.3281 164.119 49.125 163.682 50.125C163.244 51.0938 163.026 52.1406 163.026 53.2656ZM172.213 11.5L138.885 64.8438L132.323 61.375L165.651 8.03125L172.213 11.5Z" fill="#333333"/>
</svg>
