<svg width="33" height="21" viewBox="0 0 33 21" fill="none" xmlns="http://www.w3.org/2000/svg">
<path d="M1.375 21C0.985417 21 0.658854 20.8735 0.395313 20.6205C0.131771 20.3674 0 20.0539 0 19.6798C0 19.3058 0.131771 18.9948 0.395313 18.7469C0.658854 18.499 0.985417 18.375 1.375 18.375H31.625C32.0146 18.375 32.3411 18.5015 32.6047 18.7545C32.8682 19.0076 33 19.3211 33 19.6952C33 20.0692 32.8682 20.3802 32.6047 20.6281C32.3411 20.876 32.0146 21 31.625 21H1.375ZM1.375 11.8125C0.985417 11.8125 0.658854 11.686 0.395313 11.433C0.131771 11.1799 0 10.8664 0 10.4923C0 10.1183 0.131771 9.80729 0.395313 9.55937C0.658854 9.31146 0.985417 9.1875 1.375 9.1875H31.625C32.0146 9.1875 32.3411 9.31401 32.6047 9.56703C32.8682 9.82008 33 10.1336 33 10.5077C33 10.8817 32.8682 11.1927 32.6047 11.4406C32.3411 11.6885 32.0146 11.8125 31.625 11.8125H1.375ZM1.375 2.625C0.985417 2.625 0.658854 2.49849 0.395313 2.24547C0.131771 1.99242 0 1.67888 0 1.30484C0 0.930782 0.131771 0.619792 0.395313 0.371875C0.658854 0.123958 0.985417 0 1.375 0H31.625C32.0146 0 32.3411 0.12651 32.6047 0.379531C32.8682 0.632581 33 0.946122 33 1.32016C33 1.69422 32.8682 2.00521 32.6047 2.25312C32.3411 2.50104 32.0146 2.625 31.625 2.625H1.375Z" fill="#A38F85"/>
</svg>
