<svg width="36" height="54" viewBox="0 0 36 54" fill="none" xmlns="http://www.w3.org/2000/svg">
<path d="M27 18C27 15.5156 26.1211 13.3945 24.3633 11.6367C22.6055 9.87891 20.4844 9 18 9C15.5156 9 13.3945 9.87891 11.6367 11.6367C9.87891 13.3945 9 15.5156 9 18C9 20.4844 9.87891 22.6055 11.6367 24.3633C13.3945 26.1211 15.5156 27 18 27C20.4844 27 22.6055 26.1211 24.3633 24.3633C26.1211 22.6055 27 20.4844 27 18ZM36 18C36 20.5547 35.6133 22.6523 34.8398 24.293L22.043 51.5039C21.668 52.2773 21.1113 52.8867 20.373 53.332C19.6348 53.7773 18.8438 54 18 54C17.1562 54 16.3652 53.7773 15.627 53.332C14.8887 52.8867 14.3438 52.2773 13.9922 51.5039L1.16016 24.293C0.386719 22.6523 0 20.5547 0 18C0 13.0313 1.75781 8.78906 5.27344 5.27344C8.78906 1.75781 13.0313 0 18 0C22.9687 0 27.2109 1.75781 30.7266 5.27344C34.2422 8.78906 36 13.0313 36 18Z" fill="#047F37"/>
</svg>
