<svg width="25" height="25" viewBox="0 0 25 25" fill="none" xmlns="http://www.w3.org/2000/svg">
<g id="wssp 1" clip-path="url(#clip0_1090_2218)">
<g id="layer1">
<path id="path300" d="M11.5959 24.9838C10.3393 24.8557 9.14265 24.5988 8.21879 24.2587C7.46589 23.9815 6.22432 23.3531 5.60028 22.9334C4.12062 21.9381 2.82572 20.6183 1.90654 19.1687C1.48683 18.5068 0.885989 17.246 0.636339 16.5034C0.173925 15.1278 0.00182455 14.0498 1.48376e-05 12.5174C-0.00179802 10.9762 0.162286 9.91884 0.614824 8.55597C1.20168 6.78858 2.16922 5.19248 3.47122 3.84393C5.48236 1.76088 7.92927 0.509072 10.8128 0.0880695C11.5284 -0.0164069 13.3197 -0.0312683 14.0187 0.061472C16.3431 0.369886 18.5062 1.27654 20.2885 2.68952C20.798 3.0934 21.693 3.97263 22.1531 4.52114C23.2764 5.86036 24.1956 7.6658 24.6415 9.40862C24.9139 10.4731 25 11.2139 25 12.493C25 13.4328 24.9805 13.7671 24.8931 14.327C24.5628 16.4433 23.7615 18.344 22.472 20.0693C22.0217 20.6719 20.6871 22.0057 20.0877 22.4524C18.3314 23.761 16.4492 24.5541 14.3472 24.8712C13.7277 24.9647 12.0728 25.0324 11.5959 24.9838ZM7.19858 19.3903C8.2257 19.1205 9.09811 18.8998 9.13726 18.8998C9.17641 18.8998 9.39345 18.9852 9.61955 19.0896C10.5153 19.5031 11.4448 19.7205 12.5014 19.7635C14.6695 19.8519 16.6714 19.03 18.2093 17.4203C20.5837 14.935 20.9379 11.0909 19.0578 8.21362C18.1155 6.7717 16.6872 5.67375 15.0954 5.16785C14.1978 4.88258 13.8928 4.83947 12.7706 4.83924C11.8728 4.83906 11.6785 4.85342 11.2347 4.9527C8.69185 5.52161 6.68754 7.2308 5.76543 9.61665C5.0252 11.5319 5.12387 13.7464 6.03091 15.5749L6.26103 16.0387L5.7584 17.8728C5.48195 18.8815 5.24273 19.7565 5.2268 19.8174C5.20581 19.8976 5.21616 19.9215 5.26447 19.9043C5.30111 19.8913 6.17146 19.66 7.19858 19.3903ZM11.6594 18.4116C11.0527 18.3012 10.3528 18.0535 9.76052 17.7396L9.3445 17.5191L8.19862 17.8184C7.56838 17.983 7.04579 18.1108 7.03731 18.1023C7.02882 18.0938 7.15346 17.6041 7.31429 17.0139C7.47512 16.4238 7.60677 15.9092 7.60684 15.8704C7.60694 15.8316 7.51844 15.651 7.4102 15.4689C6.75498 14.3668 6.44545 12.9878 6.5702 11.7265C6.71842 10.228 7.31191 8.96702 8.36285 7.91786C9.5942 6.68858 11.0438 6.08616 12.7706 6.08616C14.5037 6.08616 15.9304 6.67507 17.1525 7.89488C17.8898 8.63088 18.3833 9.42272 18.6904 10.3629C19.101 11.6198 19.0809 13.128 18.6369 14.3629C17.9121 16.3794 16.2097 17.886 14.115 18.365C13.4422 18.5188 12.3614 18.5393 11.6594 18.4116ZM15.6421 15.6803C16.2666 15.3632 16.5297 14.9792 16.5358 14.3759L16.5393 14.0336L15.8785 13.7055C15.0548 13.2965 14.7183 13.1647 14.6274 13.2156C14.589 13.237 14.3972 13.4519 14.201 13.693C13.7731 14.219 13.7215 14.2349 13.2195 13.996C12.5193 13.6628 12.005 13.2692 11.5064 12.685C11.2292 12.3601 10.8862 11.8351 10.8862 11.7355C10.8862 11.7058 11.0188 11.5088 11.1807 11.2977C11.3427 11.0866 11.4874 10.8653 11.5023 10.806C11.5367 10.6691 10.9076 9.10713 10.7493 8.93624C10.6448 8.82343 10.6098 8.81604 10.256 8.83211C9.93208 8.84683 9.84916 8.8693 9.70039 8.98269C9.47086 9.15763 9.14401 9.65155 9.05127 9.96362C8.95428 10.29 8.95679 10.9386 9.05634 11.2737C9.40698 12.4539 10.9328 14.2371 12.2903 15.0531C12.6942 15.2959 13.1433 15.4961 13.7434 15.7009C14.2079 15.8594 14.2728 15.8692 14.7802 15.8566C15.2832 15.8441 15.3441 15.8316 15.6421 15.6803Z" fill="#A59589"/>
</g>
</g>
<defs>
<clipPath id="clip0_1090_2218">
<rect width="25" height="25" fill="white"/>
</clipPath>
</defs>
</svg>
